<svg width="200" height="60" viewBox="0 0 200 60" xmlns="http://www.w3.org/2000/svg">
  <!-- Network/Tech Icon -->
  <g transform="translate(5,10)">
    <!-- Main nodes -->
    <circle cx="10" cy="15" r="3" fill="#007D78"/>
    <circle cx="25" cy="8" r="3" fill="#007D78"/>
    <circle cx="35" cy="20" r="3" fill="#007D78"/>
    <circle cx="20" cy="25" r="3" fill="#007D78"/>
    <circle cx="8" cy="30" r="3" fill="#007D78"/>
    <circle cx="30" cy="35" r="3" fill="#007D78"/>
    <circle cx="40" cy="12" r="3" fill="#007D78"/>
    
    <!-- Secondary nodes -->
    <circle cx="15" cy="5" r="2" fill="#FF8C00"/>
    <circle cx="5" cy="20" r="2" fill="#FF8C00"/>
    <circle cx="32" cy="8" r="2" fill="#FF8C00"/>
    <circle cx="12" cy="35" r="2" fill="#FF8C00"/>
    <circle cx="38" cy="28" r="2" fill="#FF8C00"/>
    
    <!-- Connection lines -->
    <line x1="10" y1="15" x2="25" y2="8" stroke="#2C5282" stroke-width="2"/>
    <line x1="25" y1="8" x2="35" y2="20" stroke="#2C5282" stroke-width="2"/>
    <line x1="35" y1="20" x2="20" y2="25" stroke="#2C5282" stroke-width="2"/>
    <line x1="20" y1="25" x2="10" y2="15" stroke="#2C5282" stroke-width="2"/>
    <line x1="10" y1="15" x2="8" y2="30" stroke="#2C5282" stroke-width="2"/>
    <line x1="20" y1="25" x2="30" y2="35" stroke="#2C5282" stroke-width="2"/>
    <line x1="35" y1="20" x2="40" y2="12" stroke="#2C5282" stroke-width="2"/>
    <line x1="25" y1="8" x2="40" y2="12" stroke="#2C5282" stroke-width="2"/>
    <line x1="30" y1="35" x2="35" y2="20" stroke="#2C5282" stroke-width="2"/>
  </g>
  
  <!-- Text -->
  <text x="55" y="25" font-family="Arial, sans-serif" font-size="18" font-weight="bold" fill="#2C5282">OmniSolve</text>
  <text x="55" y="42" font-family="Arial, sans-serif" font-size="18" font-weight="bold" fill="#007D78">Tech</text>
  
  <!-- Circular arrow around 'o' in Solve -->
  <g transform="translate(108,30)">
    <path d="M -3,-3 A 3,3 0 1,1 3,3" stroke="#007D78" stroke-width="1.5" fill="none" stroke-linecap="round"/>
    <polygon points="3,3 5,1 2,0" fill="#007D78"/>
  </g>
</svg>